solid Assembly5Degree - 0_MiddlePiece-1
   facet normal -1.000000e+000 0.000000e+000 0.000000e+000
      outer loop
         vertex -7.272204e+001 2.292142e+001 3.230372e+001
         vertex -7.272204e+001 9.001416e+000 3.230372e+001
         vertex -7.272204e+001 2.292142e+001 7.362372e+001
      endloop
   endfacet
   facet normal -1.000000e+000 0.000000e+000 0.000000e+000
      outer loop
         vertex -7.272204e+001 2.292142e+001 7.362372e+001
         vertex -7.272204e+001 9.001416e+000 3.230372e+001
         vertex -7.272204e+001 9.001416e+000 7.362372e+001
      endloop
   endfacet
   facet normal 0.000000e+000 -4.996004e-016 1.000000e+000
      outer loop
         vertex -6.417204e+001 1.300142e+001 8.662371e+001
         vertex -6.417204e+001 1.892142e+001 8.662371e+001
         vertex -6.622204e+001 1.773783e+001 8.662371e+001
      endloop
   endfacet
   facet normal 0.000000e+000 -4.996004e-016 1.000000e+000
      outer loop
         vertex -6.430602e+001 1.942142e+001 8.662371e+001
         vertex -6.467204e+001 1.978744e+001 8.662371e+001
         vertex -6.517204e+001 1.992142e+001 8.662371e+001
      endloop
   endfacet
   facet normal 0.000000e+000 -4.996004e-016 1.000000e+000
      outer loop
         vertex -6.622204e+001 1.773783e+001 8.662371e+001
         vertex -6.622204e+001 1.418501e+001 8.662371e+001
         vertex -6.417204e+001 1.300142e+001 8.662371e+001
      endloop
   endfacet
   facet normal 0.000000e+000 -4.996004e-016 1.000000e+000
      outer loop
         vertex -6.417204e+001 1.300142e+001 8.662371e+001
         vertex -6.622204e+001 1.418501e+001 8.662371e+001
         vertex -6.467204e+001 1.213539e+001 8.662371e+001
      endloop
   endfacet
   facet normal 0.000000e+000 -4.996004e-016 1.000000e+000
      outer loop
         vertex -6.417204e+001 1.300142e+001 8.662371e+001
         vertex -6.467204e+001 1.213539e+001 8.662371e+001
         vertex -6.430602e+001 1.250142e+001 8.662371e+001
      endloop
   endfacet
   facet normal 0.000000e+000 -4.996004e-016 1.000000e+000
      outer loop
         vertex -6.417204e+001 1.892142e+001 8.662371e+001
         vertex -6.430602e+001 1.942142e+001 8.662371e+001
         vertex -6.622204e+001 1.773783e+001 8.662371e+001
      endloop
   endfacet
   facet normal 0.000000e+000 -4.996004e-016 1.000000e+000
      outer loop
         vertex -6.622204e+001 1.773783e+001 8.662371e+001
         vertex -6.430602e+001 1.942142e+001 8.662371e+001
         vertex -6.517204e+001 1.992142e+001 8.662371e+001
      endloop
   endfacet
   facet normal 0.000000e+000 -4.996004e-016 1.000000e+000
      outer loop
         vertex -6.622204e+001 1.773783e+001 8.662371e+001
         vertex -6.517204e+001 1.992142e+001 8.662371e+001
         vertex -6.727603e+001 1.846355e+001 8.662371e+001
      endloop
   endfacet
   facet normal 0.000000e+000 -4.996004e-016 1.000000e+000
      outer loop
         vertex -6.727603e+001 1.846355e+001 8.662371e+001
         vertex -6.517204e+001 1.992142e+001 8.662371e+001
         vertex -6.672205e+001 1.992142e+001 8.662371e+001
      endloop
   endfacet
   facet normal 0.000000e+000 -4.996004e-016 1.000000e+000
      outer loop
         vertex -6.727603e+001 1.846355e+001 8.662371e+001
         vertex -6.672205e+001 1.992142e+001 8.662371e+001
         vertex -6.854651e+001 1.861666e+001 8.662371e+001
      endloop
   endfacet
   facet normal 0.000000e+000 -4.996004e-016 1.000000e+000
      outer loop
         vertex -6.854651e+001 1.861666e+001 8.662371e+001
         vertex -6.672205e+001 1.992142e+001 8.662371e+001
         vertex -6.974274e+001 1.816212e+001 8.662371e+001
      endloop
   endfacet
   facet normal 0.000000e+000 -4.996004e-016 1.000000e+000
      outer loop
         vertex -6.974274e+001 1.376071e+001 8.662371e+001
         vertex -7.264114e+001 9.001416e+000 8.662371e+001
         vertex -6.854651e+001 1.330617e+001 8.662371e+001
      endloop
   endfacet
   facet normal 0.000000e+000 -4.996004e-016 1.000000e+000
      outer loop
         vertex -6.854651e+001 1.330617e+001 8.662371e+001
         vertex -7.264114e+001 9.001416e+000 8.662371e+001
         vertex -6.672205e+001 9.001416e+000 8.662371e+001
      endloop
   endfacet
   facet normal 0.000000e+000 -4.996004e-016 1.000000e+000
      outer loop
         vertex -6.854651e+001 1.330617e+001 8.662371e+001
         vertex -6.672205e+001 9.001416e+000 8.662371e+001
         vertex -6.727603e+001 1.345928e+001 8.662371e+001
      endloop
   endfacet
   facet normal 0.000000e+000 -4.996004e-016 1.000000e+000
      outer loop
         vertex -6.727603e+001 1.345928e+001 8.662371e+001
         vertex -6.672205e+001 9.001416e+000 8.662371e+001
         vertex -6.672205e+001 1.200142e+001 8.662371e+001
      endloop
   endfacet
   facet normal 0.000000e+000 -4.996004e-016 1.000000e+000
      outer loop
         vertex -6.727603e+001 1.345928e+001 8.662371e+001
         vertex -6.672205e+001 1.200142e+001 8.662371e+001
         vertex -6.622204e+001 1.418501e+001 8.662371e+001
      endloop
   endfacet
   facet normal 0.000000e+000 -4.996004e-016 1.000000e+000
      outer loop
         vertex -6.622204e+001 1.418501e+001 8.662371e+001
         vertex -6.672205e+001 1.200142e+001 8.662371e+001
         vertex -6.517204e+001 1.200142e+001 8.662371e+001
      endloop
   endfacet
   facet normal 0.000000e+000 -4.996004e-016 1.000000e+000
      outer loop
         vertex -6.622204e+001 1.418501e+001 8.662371e+001
         vertex -6.517204e+001 1.200142e+001 8.662371e+001
         vertex -6.467204e+001 1.213539e+001 8.662371e+001
      endloop
   endfacet
   facet normal 0.000000e+000 -4.996004e-016 1.000000e+000
      outer loop
         vertex -6.974274e+001 1.376071e+001 8.662371e+001
         vertex -7.059095e+001 1.471889e+001 8.662371e+001
         vertex -7.264114e+001 9.001416e+000 8.662371e+001
      endloop
   endfacet
   facet normal 0.000000e+000 -4.996004e-016 1.000000e+000
      outer loop
         vertex -7.264114e+001 9.001416e+000 8.662371e+001
         vertex -7.059095e+001 1.471889e+001 8.662371e+001
         vertex -7.089704e+001 1.596142e+001 8.662371e+001
      endloop
   endfacet
   facet normal 0.000000e+000 -4.996004e-016 1.000000e+000
      outer loop
         vertex -7.264114e+001 9.001416e+000 8.662371e+001
         vertex -7.089704e+001 1.596142e+001 8.662371e+001
         vertex -7.264114e+001 2.292142e+001 8.662371e+001
      endloop
   endfacet
   facet normal 0.000000e+000 -4.996004e-016 1.000000e+000
      outer loop
         vertex -6.672205e+001 1.992142e+001 8.662371e+001
         vertex -6.672205e+001 2.292142e+001 8.662371e+001
         vertex -6.974274e+001 1.816212e+001 8.662371e+001
      endloop
   endfacet
   facet normal 0.000000e+000 -4.996004e-016 1.000000e+000
      outer loop
         vertex -6.974274e+001 1.816212e+001 8.662371e+001
         vertex -6.672205e+001 2.292142e+001 8.662371e+001
         vertex -7.264114e+001 2.292142e+001 8.662371e+001
      endloop
   endfacet
   facet normal 0.000000e+000 -4.996004e-016 1.000000e+000
      outer loop
         vertex -6.974274e+001 1.816212e+001 8.662371e+001
         vertex -7.264114e+001 2.292142e+001 8.662371e+001
         vertex -7.059095e+001 1.720395e+001 8.662371e+001
      endloop
   endfacet
   facet normal 0.000000e+000 -4.996004e-016 1.000000e+000
      outer loop
         vertex -7.059095e+001 1.720395e+001 8.662371e+001
         vertex -7.264114e+001 2.292142e+001 8.662371e+001
         vertex -7.089704e+001 1.596142e+001 8.662371e+001
      endloop
   endfacet
   facet normal 0.000000e+000 1.000000e+000 -3.330669e-016
      outer loop
         vertex -6.517204e+001 1.992142e+001 3.230372e+001
         vertex -6.672205e+001 1.992142e+001 3.230372e+001
         vertex -6.517204e+001 1.992142e+001 8.662371e+001
      endloop
   endfacet
   facet normal 0.000000e+000 1.000000e+000 -3.330669e-016
      outer loop
         vertex -6.517204e+001 1.992142e+001 8.662371e+001
         vertex -6.672205e+001 1.992142e+001 3.230372e+001
         vertex -6.672205e+001 1.992142e+001 8.662371e+001
      endloop
   endfacet
   facet normal 1.000000e+000 0.000000e+000 -0.000000e+000
      outer loop
         vertex -6.417204e+001 1.892142e+001 8.662371e+001
         vertex -6.417204e+001 1.300142e+001 8.662371e+001
         vertex -6.417204e+001 1.892142e+001 3.230372e+001
      endloop
   endfacet
   facet normal 1.000000e+000 0.000000e+000 -0.000000e+000
      outer loop
         vertex -6.417204e+001 1.892142e+001 3.230372e+001
         vertex -6.417204e+001 1.300142e+001 8.662371e+001
         vertex -6.417204e+001 1.300142e+001 3.230372e+001
      endloop
   endfacet
   facet normal -1.224647e-016 -1.000000e+000 3.330669e-016
      outer loop
         vertex -6.517204e+001 1.200142e+001 8.662371e+001
         vertex -6.672205e+001 1.200142e+001 8.662371e+001
         vertex -6.517204e+001 1.200142e+001 3.230372e+001
      endloop
   endfacet
   facet normal -1.224647e-016 -1.000000e+000 3.330669e-016
      outer loop
         vertex -6.517204e+001 1.200142e+001 3.230372e+001
         vertex -6.672205e+001 1.200142e+001 8.662371e+001
         vertex -6.672205e+001 1.200142e+001 3.230372e+001
      endloop
   endfacet
   facet normal 1.000000e+000 0.000000e+000 -0.000000e+000
      outer loop
         vertex -6.672205e+001 9.001416e+000 3.230372e+001
         vertex -6.672205e+001 1.200142e+001 3.230372e+001
         vertex -6.672205e+001 9.001416e+000 8.662371e+001
      endloop
   endfacet
   facet normal 1.000000e+000 0.000000e+000 -0.000000e+000
      outer loop
         vertex -6.672205e+001 9.001416e+000 8.662371e+001
         vertex -6.672205e+001 1.200142e+001 3.230372e+001
         vertex -6.672205e+001 1.200142e+001 8.662371e+001
      endloop
   endfacet
   facet normal -1.445603e-016 -1.000000e+000 3.330669e-016
      outer loop
         vertex -7.264114e+001 9.001416e+000 7.362372e+001
         vertex -7.272204e+001 9.001416e+000 7.362372e+001
         vertex -7.272204e+001 9.001416e+000 3.230372e+001
      endloop
   endfacet
   facet normal -1.445603e-016 -1.000000e+000 3.330669e-016
      outer loop
         vertex -7.264114e+001 9.001416e+000 8.662371e+001
         vertex -7.264114e+001 9.001416e+000 8.562372e+001
         vertex -6.672205e+001 9.001416e+000 8.662371e+001
      endloop
   endfacet
   facet normal -1.445603e-016 -1.000000e+000 3.330669e-016
      outer loop
         vertex -6.672205e+001 9.001416e+000 8.662371e+001
         vertex -7.264114e+001 9.001416e+000 8.562372e+001
         vertex -7.264114e+001 9.001416e+000 7.362372e+001
      endloop
   endfacet
   facet normal -1.445603e-016 -1.000000e+000 3.330669e-016
      outer loop
         vertex -6.672205e+001 9.001416e+000 8.662371e+001
         vertex -7.264114e+001 9.001416e+000 7.362372e+001
         vertex -6.672205e+001 9.001416e+000 3.230372e+001
      endloop
   endfacet
   facet normal -1.445603e-016 -1.000000e+000 3.330669e-016
      outer loop
         vertex -6.672205e+001 9.001416e+000 3.230372e+001
         vertex -7.264114e+001 9.001416e+000 7.362372e+001
         vertex -7.272204e+001 9.001416e+000 3.230372e+001
      endloop
   endfacet
   facet normal 0.000000e+000 1.000000e+000 -3.330669e-016
      outer loop
         vertex -7.272204e+001 2.292142e+001 3.230372e+001
         vertex -7.272204e+001 2.292142e+001 7.362372e+001
         vertex -6.672205e+001 2.292142e+001 3.230372e+001
      endloop
   endfacet
   facet normal 0.000000e+000 1.000000e+000 -3.330669e-016
      outer loop
         vertex -6.672205e+001 2.292142e+001 3.230372e+001
         vertex -7.272204e+001 2.292142e+001 7.362372e+001
         vertex -7.264114e+001 2.292142e+001 7.362372e+001
      endloop
   endfacet
   facet normal 0.000000e+000 1.000000e+000 -3.330669e-016
      outer loop
         vertex -6.672205e+001 2.292142e+001 3.230372e+001
         vertex -7.264114e+001 2.292142e+001 7.362372e+001
         vertex -6.672205e+001 2.292142e+001 8.662371e+001
      endloop
   endfacet
   facet normal 0.000000e+000 1.000000e+000 -3.330669e-016
      outer loop
         vertex -6.672205e+001 2.292142e+001 8.662371e+001
         vertex -7.264114e+001 2.292142e+001 7.362372e+001
         vertex -7.264114e+001 2.292142e+001 8.562372e+001
      endloop
   endfacet
   facet normal 0.000000e+000 1.000000e+000 -3.330669e-016
      outer loop
         vertex -6.672205e+001 2.292142e+001 8.662371e+001
         vertex -7.264114e+001 2.292142e+001 8.562372e+001
         vertex -7.264114e+001 2.292142e+001 8.662371e+001
      endloop
   endfacet
   facet normal 1.000000e+000 0.000000e+000 -0.000000e+000
      outer loop
         vertex -6.672205e+001 1.992142e+001 3.230372e+001
         vertex -6.672205e+001 2.292142e+001 3.230372e+001
         vertex -6.672205e+001 1.992142e+001 8.662371e+001
      endloop
   endfacet
   facet normal 1.000000e+000 0.000000e+000 -0.000000e+000
      outer loop
         vertex -6.672205e+001 1.992142e+001 8.662371e+001
         vertex -6.672205e+001 2.292142e+001 3.230372e+001
         vertex -6.672205e+001 2.292142e+001 8.662371e+001
      endloop
   endfacet
   facet normal 0.000000e+000 4.996004e-016 -1.000000e+000
      outer loop
         vertex -7.272204e+001 2.292142e+001 3.230372e+001
         vertex -6.672205e+001 2.292142e+001 3.230372e+001
         vertex -6.672205e+001 1.992142e+001 3.230372e+001
      endloop
   endfacet
   facet normal 0.000000e+000 4.996004e-016 -1.000000e+000
      outer loop
         vertex -6.672205e+001 1.200142e+001 3.230372e+001
         vertex -6.672205e+001 9.001416e+000 3.230372e+001
         vertex -6.974274e+001 1.376071e+001 3.230372e+001
      endloop
   endfacet
   facet normal 0.000000e+000 4.996004e-016 -1.000000e+000
      outer loop
         vertex -6.974274e+001 1.376071e+001 3.230372e+001
         vertex -6.672205e+001 9.001416e+000 3.230372e+001
         vertex -7.272204e+001 9.001416e+000 3.230372e+001
      endloop
   endfacet
   facet normal 0.000000e+000 4.996004e-016 -1.000000e+000
      outer loop
         vertex -6.974274e+001 1.816212e+001 3.230372e+001
         vertex -7.059095e+001 1.720395e+001 3.230372e+001
         vertex -7.272204e+001 2.292142e+001 3.230372e+001
      endloop
   endfacet
   facet normal 0.000000e+000 4.996004e-016 -1.000000e+000
      outer loop
         vertex -7.272204e+001 2.292142e+001 3.230372e+001
         vertex -7.059095e+001 1.720395e+001 3.230372e+001
         vertex -7.089704e+001 1.596142e+001 3.230372e+001
      endloop
   endfacet
   facet normal 0.000000e+000 4.996004e-016 -1.000000e+000
      outer loop
         vertex -7.272204e+001 2.292142e+001 3.230372e+001
         vertex -7.089704e+001 1.596142e+001 3.230372e+001
         vertex -7.272204e+001 9.001416e+000 3.230372e+001
      endloop
   endfacet
   facet normal 0.000000e+000 4.996004e-016 -1.000000e+000
      outer loop
         vertex -7.272204e+001 9.001416e+000 3.230372e+001
         vertex -7.089704e+001 1.596142e+001 3.230372e+001
         vertex -7.059095e+001 1.471889e+001 3.230372e+001
      endloop
   endfacet
   facet normal 0.000000e+000 4.996004e-016 -1.000000e+000
      outer loop
         vertex -7.272204e+001 9.001416e+000 3.230372e+001
         vertex -7.059095e+001 1.471889e+001 3.230372e+001
         vertex -6.974274e+001 1.376071e+001 3.230372e+001
      endloop
   endfacet
   facet normal 0.000000e+000 4.996004e-016 -1.000000e+000
      outer loop
         vertex -6.430602e+001 1.250142e+001 3.230372e+001
         vertex -6.467204e+001 1.213539e+001 3.230372e+001
         vertex -6.517204e+001 1.200142e+001 3.230372e+001
      endloop
   endfacet
   facet normal 0.000000e+000 4.996004e-016 -1.000000e+000
      outer loop
         vertex -6.622204e+001 1.773783e+001 3.230372e+001
         vertex -6.517204e+001 1.992142e+001 3.230372e+001
         vertex -6.467204e+001 1.978744e+001 3.230372e+001
      endloop
   endfacet
   facet normal 0.000000e+000 4.996004e-016 -1.000000e+000
      outer loop
         vertex -6.517204e+001 1.992142e+001 3.230372e+001
         vertex -6.622204e+001 1.773783e+001 3.230372e+001
         vertex -6.672205e+001 1.992142e+001 3.230372e+001
      endloop
   endfacet
   facet normal 0.000000e+000 4.996004e-016 -1.000000e+000
      outer loop
         vertex -6.672205e+001 1.992142e+001 3.230372e+001
         vertex -6.622204e+001 1.773783e+001 3.230372e+001
         vertex -6.727603e+001 1.846355e+001 3.230372e+001
      endloop
   endfacet
   facet normal 0.000000e+000 4.996004e-016 -1.000000e+000
      outer loop
         vertex -6.672205e+001 1.992142e+001 3.230372e+001
         vertex -6.727603e+001 1.846355e+001 3.230372e+001
         vertex -7.272204e+001 2.292142e+001 3.230372e+001
      endloop
   endfacet
   facet normal 0.000000e+000 4.996004e-016 -1.000000e+000
      outer loop
         vertex -7.272204e+001 2.292142e+001 3.230372e+001
         vertex -6.727603e+001 1.846355e+001 3.230372e+001
         vertex -6.854651e+001 1.861666e+001 3.230372e+001
      endloop
   endfacet
   facet normal 0.000000e+000 4.996004e-016 -1.000000e+000
      outer loop
         vertex -7.272204e+001 2.292142e+001 3.230372e+001
         vertex -6.854651e+001 1.861666e+001 3.230372e+001
         vertex -6.974274e+001 1.816212e+001 3.230372e+001
      endloop
   endfacet
   facet normal 0.000000e+000 4.996004e-016 -1.000000e+000
      outer loop
         vertex -6.974274e+001 1.376071e+001 3.230372e+001
         vertex -6.854651e+001 1.330617e+001 3.230372e+001
         vertex -6.672205e+001 1.200142e+001 3.230372e+001
      endloop
   endfacet
   facet normal 0.000000e+000 4.996004e-016 -1.000000e+000
      outer loop
         vertex -6.672205e+001 1.200142e+001 3.230372e+001
         vertex -6.854651e+001 1.330617e+001 3.230372e+001
         vertex -6.727603e+001 1.345928e+001 3.230372e+001
      endloop
   endfacet
   facet normal 0.000000e+000 4.996004e-016 -1.000000e+000
      outer loop
         vertex -6.672205e+001 1.200142e+001 3.230372e+001
         vertex -6.727603e+001 1.345928e+001 3.230372e+001
         vertex -6.517204e+001 1.200142e+001 3.230372e+001
      endloop
   endfacet
   facet normal 0.000000e+000 4.996004e-016 -1.000000e+000
      outer loop
         vertex -6.517204e+001 1.200142e+001 3.230372e+001
         vertex -6.727603e+001 1.345928e+001 3.230372e+001
         vertex -6.622204e+001 1.418501e+001 3.230372e+001
      endloop
   endfacet
   facet normal 0.000000e+000 4.996004e-016 -1.000000e+000
      outer loop
         vertex -6.517204e+001 1.200142e+001 3.230372e+001
         vertex -6.622204e+001 1.418501e+001 3.230372e+001
         vertex -6.430602e+001 1.250142e+001 3.230372e+001
      endloop
   endfacet
   facet normal 0.000000e+000 4.996004e-016 -1.000000e+000
      outer loop
         vertex -6.467204e+001 1.978744e+001 3.230372e+001
         vertex -6.430602e+001 1.942142e+001 3.230372e+001
         vertex -6.622204e+001 1.773783e+001 3.230372e+001
      endloop
   endfacet
   facet normal 0.000000e+000 4.996004e-016 -1.000000e+000
      outer loop
         vertex -6.622204e+001 1.773783e+001 3.230372e+001
         vertex -6.430602e+001 1.942142e+001 3.230372e+001
         vertex -6.417204e+001 1.892142e+001 3.230372e+001
      endloop
   endfacet
   facet normal 0.000000e+000 4.996004e-016 -1.000000e+000
      outer loop
         vertex -6.622204e+001 1.773783e+001 3.230372e+001
         vertex -6.417204e+001 1.892142e+001 3.230372e+001
         vertex -6.622204e+001 1.418501e+001 3.230372e+001
      endloop
   endfacet
   facet normal 0.000000e+000 4.996004e-016 -1.000000e+000
      outer loop
         vertex -6.622204e+001 1.418501e+001 3.230372e+001
         vertex -6.417204e+001 1.892142e+001 3.230372e+001
         vertex -6.417204e+001 1.300142e+001 3.230372e+001
      endloop
   endfacet
   facet normal 0.000000e+000 4.996004e-016 -1.000000e+000
      outer loop
         vertex -6.622204e+001 1.418501e+001 3.230372e+001
         vertex -6.417204e+001 1.300142e+001 3.230372e+001
         vertex -6.430602e+001 1.250142e+001 3.230372e+001
      endloop
   endfacet
   facet normal 1.718619e-001 9.851211e-001 -3.281112e-016
      outer loop
         vertex -6.517204e+001 1.992142e+001 3.230372e+001
         vertex -6.517204e+001 1.992142e+001 8.662371e+001
         vertex -6.467204e+001 1.978744e+001 8.662371e+001
      endloop
   endfacet
   facet normal 3.437238e-001 9.390708e-001 -3.127734e-016
      outer loop
         vertex -6.517204e+001 1.992142e+001 3.230372e+001
         vertex -6.467204e+001 1.978744e+001 8.662371e+001
         vertex -6.467204e+001 1.978744e+001 3.230372e+001
      endloop
   endfacet
   facet normal 6.413973e-001 7.672089e-001 -2.555319e-016
      outer loop
         vertex -6.467204e+001 1.978744e+001 3.230372e+001
         vertex -6.467204e+001 1.978744e+001 8.662371e+001
         vertex -6.430602e+001 1.942142e+001 8.662371e+001
      endloop
   endfacet
   facet normal 7.672089e-001 6.413973e-001 -2.136282e-016
      outer loop
         vertex -6.467204e+001 1.978744e+001 3.230372e+001
         vertex -6.430602e+001 1.942142e+001 8.662371e+001
         vertex -6.430602e+001 1.942142e+001 3.230372e+001
      endloop
   endfacet
   facet normal 9.390708e-001 3.437238e-001 -1.144830e-016
      outer loop
         vertex -6.430602e+001 1.942142e+001 3.230372e+001
         vertex -6.430602e+001 1.942142e+001 8.662371e+001
         vertex -6.417204e+001 1.892142e+001 8.662371e+001
      endloop
   endfacet
   facet normal 9.851211e-001 1.718619e-001 -5.724151e-017
      outer loop
         vertex -6.430602e+001 1.942142e+001 3.230372e+001
         vertex -6.417204e+001 1.892142e+001 8.662371e+001
         vertex -6.417204e+001 1.892142e+001 3.230372e+001
      endloop
   endfacet
   facet normal 1.718619e-001 -9.851211e-001 3.281112e-016
      outer loop
         vertex -6.517204e+001 1.200142e+001 8.662371e+001
         vertex -6.517204e+001 1.200142e+001 3.230372e+001
         vertex -6.467204e+001 1.213539e+001 3.230372e+001
      endloop
   endfacet
   facet normal 3.437238e-001 -9.390708e-001 3.127734e-016
      outer loop
         vertex -6.517204e+001 1.200142e+001 8.662371e+001
         vertex -6.467204e+001 1.213539e+001 3.230372e+001
         vertex -6.467204e+001 1.213539e+001 8.662371e+001
      endloop
   endfacet
   facet normal 6.413973e-001 -7.672089e-001 2.555319e-016
      outer loop
         vertex -6.467204e+001 1.213539e+001 8.662371e+001
         vertex -6.467204e+001 1.213539e+001 3.230372e+001
         vertex -6.430602e+001 1.250142e+001 3.230372e+001
      endloop
   endfacet
   facet normal 7.672089e-001 -6.413973e-001 2.136282e-016
      outer loop
         vertex -6.467204e+001 1.213539e+001 8.662371e+001
         vertex -6.430602e+001 1.250142e+001 3.230372e+001
         vertex -6.430602e+001 1.250142e+001 8.662371e+001
      endloop
   endfacet
   facet normal 9.390708e-001 -3.437238e-001 1.144830e-016
      outer loop
         vertex -6.430602e+001 1.250142e+001 8.662371e+001
         vertex -6.430602e+001 1.250142e+001 3.230372e+001
         vertex -6.417204e+001 1.300142e+001 3.230372e+001
      endloop
   endfacet
   facet normal 9.851211e-001 -1.718619e-001 5.724151e-017
      outer loop
         vertex -6.430602e+001 1.250142e+001 8.662371e+001
         vertex -6.417204e+001 1.300142e+001 3.230372e+001
         vertex -6.417204e+001 1.300142e+001 8.662371e+001
      endloop
   endfacet
   facet normal 1.000000e+000 0.000000e+000 -0.000000e+000
      outer loop
         vertex -6.622204e+001 1.418501e+001 2.730372e+001
         vertex -6.622204e+001 1.773783e+001 2.730372e+001
         vertex -6.622204e+001 1.418501e+001 3.230372e+001
      endloop
   endfacet
   facet normal 1.000000e+000 0.000000e+000 -0.000000e+000
      outer loop
         vertex -6.622204e+001 1.418501e+001 3.230372e+001
         vertex -6.622204e+001 1.773783e+001 2.730372e+001
         vertex -6.622204e+001 1.773783e+001 3.230372e+001
      endloop
   endfacet
   facet normal 6.326217e-001 -7.744610e-001 2.579473e-016
      outer loop
         vertex -6.622204e+001 1.418501e+001 2.730372e+001
         vertex -6.622204e+001 1.418501e+001 3.230372e+001
         vertex -6.727603e+001 1.345928e+001 3.230372e+001
      endloop
   endfacet
   facet normal 4.978111e-001 -8.672854e-001 2.888641e-016
      outer loop
         vertex -6.622204e+001 1.418501e+001 2.730372e+001
         vertex -6.727603e+001 1.345928e+001 3.230372e+001
         vertex -6.727603e+001 1.345928e+001 2.730372e+001
      endloop
   endfacet
   facet normal 2.004989e-001 -9.796939e-001 3.263036e-016
      outer loop
         vertex -6.727603e+001 1.345928e+001 2.730372e+001
         vertex -6.727603e+001 1.345928e+001 3.230372e+001
         vertex -6.854651e+001 1.330617e+001 3.230372e+001
      endloop
   endfacet
   facet normal 3.799734e-002 -9.992778e-001 3.328264e-016
      outer loop
         vertex -6.727603e+001 1.345928e+001 2.730372e+001
         vertex -6.854651e+001 1.330617e+001 3.230372e+001
         vertex -6.854651e+001 1.330617e+001 2.730372e+001
      endloop
   endfacet
   facet normal -2.775082e-001 -9.607233e-001 3.199851e-016
      outer loop
         vertex -6.854651e+001 1.330617e+001 2.730372e+001
         vertex -6.854651e+001 1.330617e+001 3.230372e+001
         vertex -6.974274e+001 1.376071e+001 3.230372e+001
      endloop
   endfacet
   facet normal -4.305121e-001 -9.025848e-001 3.006211e-016
      outer loop
         vertex -6.854651e+001 1.330617e+001 2.730372e+001
         vertex -6.974274e+001 1.376071e+001 3.230372e+001
         vertex -6.974274e+001 1.376071e+001 2.730372e+001
      endloop
   endfacet
   facet normal -6.920074e-001 -7.218904e-001 2.404378e-016
      outer loop
         vertex -6.974274e+001 1.376071e+001 2.730372e+001
         vertex -6.974274e+001 1.376071e+001 3.230372e+001
         vertex -7.059095e+001 1.471889e+001 3.230372e+001
      endloop
   endfacet
   facet normal -8.004987e-001 -5.993345e-001 1.996185e-016
      outer loop
         vertex -6.974274e+001 1.376071e+001 2.730372e+001
         vertex -7.059095e+001 1.471889e+001 3.230372e+001
         vertex -7.059095e+001 1.471889e+001 2.730372e+001
      endloop
   endfacet
   facet normal -9.481402e-001 -3.178525e-001 1.058661e-016
      outer loop
         vertex -7.059095e+001 1.471889e+001 2.730372e+001
         vertex -7.059095e+001 1.471889e+001 3.230372e+001
         vertex -7.089704e+001 1.596142e+001 3.230372e+001
      endloop
   endfacet
   facet normal -9.872904e-001 -1.589262e-001 5.293307e-017
      outer loop
         vertex -7.059095e+001 1.471889e+001 2.730372e+001
         vertex -7.089704e+001 1.596142e+001 3.230372e+001
         vertex -7.089704e+001 1.596142e+001 2.730372e+001
      endloop
   endfacet
   facet normal -9.872904e-001 1.589262e-001 -5.293307e-017
      outer loop
         vertex -7.089704e+001 1.596142e+001 2.730372e+001
         vertex -7.089704e+001 1.596142e+001 3.230372e+001
         vertex -7.059095e+001 1.720395e+001 3.230372e+001
      endloop
   endfacet
   facet normal -9.481402e-001 3.178525e-001 -1.058661e-016
      outer loop
         vertex -7.089704e+001 1.596142e+001 2.730372e+001
         vertex -7.059095e+001 1.720395e+001 3.230372e+001
         vertex -7.059095e+001 1.720395e+001 2.730372e+001
      endloop
   endfacet
   facet normal -8.004987e-001 5.993345e-001 -1.996185e-016
      outer loop
         vertex -7.059095e+001 1.720395e+001 2.730372e+001
         vertex -7.059095e+001 1.720395e+001 3.230372e+001
         vertex -6.974274e+001 1.816212e+001 3.230372e+001
      endloop
   endfacet
   facet normal -6.920074e-001 7.218904e-001 -2.404378e-016
      outer loop
         vertex -7.059095e+001 1.720395e+001 2.730372e+001
         vertex -6.974274e+001 1.816212e+001 3.230372e+001
         vertex -6.974274e+001 1.816212e+001 2.730372e+001
      endloop
   endfacet
   facet normal -4.305121e-001 9.025848e-001 -3.006211e-016
      outer loop
         vertex -6.974274e+001 1.816212e+001 2.730372e+001
         vertex -6.974274e+001 1.816212e+001 3.230372e+001
         vertex -6.854651e+001 1.861666e+001 3.230372e+001
      endloop
   endfacet
   facet normal -2.775082e-001 9.607233e-001 -3.199851e-016
      outer loop
         vertex -6.974274e+001 1.816212e+001 2.730372e+001
         vertex -6.854651e+001 1.861666e+001 3.230372e+001
         vertex -6.854651e+001 1.861666e+001 2.730372e+001
      endloop
   endfacet
   facet normal 3.799734e-002 9.992778e-001 -3.328264e-016
      outer loop
         vertex -6.854651e+001 1.861666e+001 2.730372e+001
         vertex -6.854651e+001 1.861666e+001 3.230372e+001
         vertex -6.727603e+001 1.846355e+001 3.230372e+001
      endloop
   endfacet
   facet normal 2.004989e-001 9.796939e-001 -3.263036e-016
      outer loop
         vertex -6.854651e+001 1.861666e+001 2.730372e+001
         vertex -6.727603e+001 1.846355e+001 3.230372e+001
         vertex -6.727603e+001 1.846355e+001 2.730372e+001
      endloop
   endfacet
   facet normal 4.978111e-001 8.672855e-001 -2.888641e-016
      outer loop
         vertex -6.727603e+001 1.846355e+001 2.730372e+001
         vertex -6.727603e+001 1.846355e+001 3.230372e+001
         vertex -6.622204e+001 1.773783e+001 3.230372e+001
      endloop
   endfacet
   facet normal 6.326217e-001 7.744610e-001 -2.579473e-016
      outer loop
         vertex -6.727603e+001 1.846355e+001 2.730372e+001
         vertex -6.622204e+001 1.773783e+001 3.230372e+001
         vertex -6.622204e+001 1.773783e+001 2.730372e+001
      endloop
   endfacet
   facet normal 0.000000e+000 4.996004e-016 -1.000000e+000
      outer loop
         vertex -7.059095e+001 1.720395e+001 2.730372e+001
         vertex -6.974274e+001 1.816212e+001 2.730372e+001
         vertex -6.854651e+001 1.861666e+001 2.730372e+001
      endloop
   endfacet
   facet normal 0.000000e+000 4.996004e-016 -1.000000e+000
      outer loop
         vertex -7.059095e+001 1.471889e+001 2.730372e+001
         vertex -7.089704e+001 1.596142e+001 2.730372e+001
         vertex -7.059095e+001 1.720395e+001 2.730372e+001
      endloop
   endfacet
   facet normal 0.000000e+000 4.996004e-016 -1.000000e+000
      outer loop
         vertex -6.622204e+001 1.773783e+001 2.730372e+001
         vertex -6.622204e+001 1.418501e+001 2.730372e+001
         vertex -6.727603e+001 1.846355e+001 2.730372e+001
      endloop
   endfacet
   facet normal 0.000000e+000 4.996004e-016 -1.000000e+000
      outer loop
         vertex -6.727603e+001 1.846355e+001 2.730372e+001
         vertex -6.622204e+001 1.418501e+001 2.730372e+001
         vertex -6.727603e+001 1.345928e+001 2.730372e+001
      endloop
   endfacet
   facet normal 0.000000e+000 4.996004e-016 -1.000000e+000
      outer loop
         vertex -6.727603e+001 1.846355e+001 2.730372e+001
         vertex -6.727603e+001 1.345928e+001 2.730372e+001
         vertex -6.854651e+001 1.861666e+001 2.730372e+001
      endloop
   endfacet
   facet normal 0.000000e+000 4.996004e-016 -1.000000e+000
      outer loop
         vertex -6.854651e+001 1.861666e+001 2.730372e+001
         vertex -6.727603e+001 1.345928e+001 2.730372e+001
         vertex -6.854651e+001 1.330617e+001 2.730372e+001
      endloop
   endfacet
   facet normal 0.000000e+000 4.996004e-016 -1.000000e+000
      outer loop
         vertex -6.854651e+001 1.861666e+001 2.730372e+001
         vertex -6.854651e+001 1.330617e+001 2.730372e+001
         vertex -7.059095e+001 1.720395e+001 2.730372e+001
      endloop
   endfacet
   facet normal 0.000000e+000 4.996004e-016 -1.000000e+000
      outer loop
         vertex -7.059095e+001 1.720395e+001 2.730372e+001
         vertex -6.854651e+001 1.330617e+001 2.730372e+001
         vertex -6.974274e+001 1.376071e+001 2.730372e+001
      endloop
   endfacet
   facet normal 0.000000e+000 4.996004e-016 -1.000000e+000
      outer loop
         vertex -7.059095e+001 1.720395e+001 2.730372e+001
         vertex -6.974274e+001 1.376071e+001 2.730372e+001
         vertex -7.059095e+001 1.471889e+001 2.730372e+001
      endloop
   endfacet
   facet normal 1.000000e+000 0.000000e+000 -0.000000e+000
      outer loop
         vertex -6.622204e+001 1.773783e+001 9.162372e+001
         vertex -6.622204e+001 1.418501e+001 9.162372e+001
         vertex -6.622204e+001 1.773783e+001 8.662371e+001
      endloop
   endfacet
   facet normal 1.000000e+000 0.000000e+000 -0.000000e+000
      outer loop
         vertex -6.622204e+001 1.773783e+001 8.662371e+001
         vertex -6.622204e+001 1.418501e+001 9.162372e+001
         vertex -6.622204e+001 1.418501e+001 8.662371e+001
      endloop
   endfacet
   facet normal 6.326217e-001 7.744610e-001 -2.579473e-016
      outer loop
         vertex -6.622204e+001 1.773783e+001 9.162372e+001
         vertex -6.622204e+001 1.773783e+001 8.662371e+001
         vertex -6.727603e+001 1.846355e+001 8.662371e+001
      endloop
   endfacet
   facet normal 4.978111e-001 8.672854e-001 -2.888641e-016
      outer loop
         vertex -6.622204e+001 1.773783e+001 9.162372e+001
         vertex -6.727603e+001 1.846355e+001 8.662371e+001
         vertex -6.727603e+001 1.846355e+001 9.162372e+001
      endloop
   endfacet
   facet normal 2.004989e-001 9.796939e-001 -3.263036e-016
      outer loop
         vertex -6.727603e+001 1.846355e+001 9.162372e+001
         vertex -6.727603e+001 1.846355e+001 8.662371e+001
         vertex -6.854651e+001 1.861666e+001 8.662371e+001
      endloop
   endfacet
   facet normal 3.799734e-002 9.992778e-001 -3.328264e-016
      outer loop
         vertex -6.727603e+001 1.846355e+001 9.162372e+001
         vertex -6.854651e+001 1.861666e+001 8.662371e+001
         vertex -6.854651e+001 1.861666e+001 9.162372e+001
      endloop
   endfacet
   facet normal -2.775082e-001 9.607233e-001 -3.199851e-016
      outer loop
         vertex -6.854651e+001 1.861666e+001 9.162372e+001
         vertex -6.854651e+001 1.861666e+001 8.662371e+001
         vertex -6.974274e+001 1.816212e+001 8.662371e+001
      endloop
   endfacet
   facet normal -4.305121e-001 9.025848e-001 -3.006211e-016
      outer loop
         vertex -6.854651e+001 1.861666e+001 9.162372e+001
         vertex -6.974274e+001 1.816212e+001 8.662371e+001
         vertex -6.974274e+001 1.816212e+001 9.162372e+001
      endloop
   endfacet
   facet normal -6.920074e-001 7.218904e-001 -2.404378e-016
      outer loop
         vertex -6.974274e+001 1.816212e+001 9.162372e+001
         vertex -6.974274e+001 1.816212e+001 8.662371e+001
         vertex -7.059095e+001 1.720395e+001 8.662371e+001
      endloop
   endfacet
   facet normal -8.004987e-001 5.993345e-001 -1.996185e-016
      outer loop
         vertex -6.974274e+001 1.816212e+001 9.162372e+001
         vertex -7.059095e+001 1.720395e+001 8.662371e+001
         vertex -7.059095e+001 1.720395e+001 9.162372e+001
      endloop
   endfacet
   facet normal -9.481402e-001 3.178525e-001 -1.058661e-016
      outer loop
         vertex -7.059095e+001 1.720395e+001 9.162372e+001
         vertex -7.059095e+001 1.720395e+001 8.662371e+001
         vertex -7.089704e+001 1.596142e+001 8.662371e+001
      endloop
   endfacet
   facet normal -9.872904e-001 1.589262e-001 -5.293307e-017
      outer loop
         vertex -7.059095e+001 1.720395e+001 9.162372e+001
         vertex -7.089704e+001 1.596142e+001 8.662371e+001
         vertex -7.089704e+001 1.596142e+001 9.162372e+001
      endloop
   endfacet
   facet normal -9.872904e-001 -1.589262e-001 5.293307e-017
      outer loop
         vertex -7.089704e+001 1.596142e+001 9.162372e+001
         vertex -7.089704e+001 1.596142e+001 8.662371e+001
         vertex -7.059095e+001 1.471889e+001 8.662371e+001
      endloop
   endfacet
   facet normal -9.481402e-001 -3.178525e-001 1.058661e-016
      outer loop
         vertex -7.089704e+001 1.596142e+001 9.162372e+001
         vertex -7.059095e+001 1.471889e+001 8.662371e+001
         vertex -7.059095e+001 1.471889e+001 9.162372e+001
      endloop
   endfacet
   facet normal -8.004987e-001 -5.993345e-001 1.996185e-016
      outer loop
         vertex -7.059095e+001 1.471889e+001 9.162372e+001
         vertex -7.059095e+001 1.471889e+001 8.662371e+001
         vertex -6.974274e+001 1.376071e+001 8.662371e+001
      endloop
   endfacet
   facet normal -6.920074e-001 -7.218904e-001 2.404378e-016
      outer loop
         vertex -7.059095e+001 1.471889e+001 9.162372e+001
         vertex -6.974274e+001 1.376071e+001 8.662371e+001
         vertex -6.974274e+001 1.376071e+001 9.162372e+001
      endloop
   endfacet
   facet normal -4.305121e-001 -9.025848e-001 3.006211e-016
      outer loop
         vertex -6.974274e+001 1.376071e+001 9.162372e+001
         vertex -6.974274e+001 1.376071e+001 8.662371e+001
         vertex -6.854651e+001 1.330617e+001 8.662371e+001
      endloop
   endfacet
   facet normal -2.775082e-001 -9.607233e-001 3.199851e-016
      outer loop
         vertex -6.974274e+001 1.376071e+001 9.162372e+001
         vertex -6.854651e+001 1.330617e+001 8.662371e+001
         vertex -6.854651e+001 1.330617e+001 9.162372e+001
      endloop
   endfacet
   facet normal 3.799734e-002 -9.992778e-001 3.328264e-016
      outer loop
         vertex -6.854651e+001 1.330617e+001 9.162372e+001
         vertex -6.854651e+001 1.330617e+001 8.662371e+001
         vertex -6.727603e+001 1.345928e+001 8.662371e+001
      endloop
   endfacet
   facet normal 2.004989e-001 -9.796939e-001 3.263036e-016
      outer loop
         vertex -6.854651e+001 1.330617e+001 9.162372e+001
         vertex -6.727603e+001 1.345928e+001 8.662371e+001
         vertex -6.727603e+001 1.345928e+001 9.162372e+001
      endloop
   endfacet
   facet normal 4.978111e-001 -8.672855e-001 2.888641e-016
      outer loop
         vertex -6.727603e+001 1.345928e+001 9.162372e+001
         vertex -6.727603e+001 1.345928e+001 8.662371e+001
         vertex -6.622204e+001 1.418501e+001 8.662371e+001
      endloop
   endfacet
   facet normal 6.326217e-001 -7.744610e-001 2.579473e-016
      outer loop
         vertex -6.727603e+001 1.345928e+001 9.162372e+001
         vertex -6.622204e+001 1.418501e+001 8.662371e+001
         vertex -6.622204e+001 1.418501e+001 9.162372e+001
      endloop
   endfacet
   facet normal 0.000000e+000 -4.996004e-016 1.000000e+000
      outer loop
         vertex -6.622204e+001 1.418501e+001 9.162372e+001
         vertex -6.622204e+001 1.773783e+001 9.162372e+001
         vertex -6.727603e+001 1.345928e+001 9.162372e+001
      endloop
   endfacet
   facet normal 0.000000e+000 -4.996004e-016 1.000000e+000
      outer loop
         vertex -6.727603e+001 1.345928e+001 9.162372e+001
         vertex -6.622204e+001 1.773783e+001 9.162372e+001
         vertex -6.727603e+001 1.846355e+001 9.162372e+001
      endloop
   endfacet
   facet normal 0.000000e+000 -4.996004e-016 1.000000e+000
      outer loop
         vertex -6.727603e+001 1.345928e+001 9.162372e+001
         vertex -6.727603e+001 1.846355e+001 9.162372e+001
         vertex -6.854651e+001 1.330617e+001 9.162372e+001
      endloop
   endfacet
   facet normal 0.000000e+000 -4.996004e-016 1.000000e+000
      outer loop
         vertex -6.854651e+001 1.330617e+001 9.162372e+001
         vertex -6.727603e+001 1.846355e+001 9.162372e+001
         vertex -6.974274e+001 1.376071e+001 9.162372e+001
      endloop
   endfacet
   facet normal 0.000000e+000 -4.996004e-016 1.000000e+000
      outer loop
         vertex -6.974274e+001 1.816212e+001 9.162372e+001
         vertex -7.059095e+001 1.720395e+001 9.162372e+001
         vertex -6.854651e+001 1.861666e+001 9.162372e+001
      endloop
   endfacet
   facet normal 0.000000e+000 -4.996004e-016 1.000000e+000
      outer loop
         vertex -6.854651e+001 1.861666e+001 9.162372e+001
         vertex -7.059095e+001 1.720395e+001 9.162372e+001
         vertex -7.089704e+001 1.596142e+001 9.162372e+001
      endloop
   endfacet
   facet normal 0.000000e+000 -4.996004e-016 1.000000e+000
      outer loop
         vertex -6.854651e+001 1.861666e+001 9.162372e+001
         vertex -7.089704e+001 1.596142e+001 9.162372e+001
         vertex -6.727603e+001 1.846355e+001 9.162372e+001
      endloop
   endfacet
   facet normal 0.000000e+000 -4.996004e-016 1.000000e+000
      outer loop
         vertex -6.727603e+001 1.846355e+001 9.162372e+001
         vertex -7.089704e+001 1.596142e+001 9.162372e+001
         vertex -7.059095e+001 1.471889e+001 9.162372e+001
      endloop
   endfacet
   facet normal 0.000000e+000 -4.996004e-016 1.000000e+000
      outer loop
         vertex -6.727603e+001 1.846355e+001 9.162372e+001
         vertex -7.059095e+001 1.471889e+001 9.162372e+001
         vertex -6.974274e+001 1.376071e+001 9.162372e+001
      endloop
   endfacet
   facet normal -6.374724e-001 7.704732e-001 -2.566191e-016
      outer loop
         vertex -7.264114e+001 9.001416e+000 7.362372e+001
         vertex -7.264114e+001 9.001416e+000 8.562372e+001
         vertex -7.112748e+001 1.035972e+001 8.562372e+001
      endloop
   endfacet
   facet normal -6.972128e-001 7.168643e-001 -2.387638e-016
      outer loop
         vertex -7.264114e+001 9.001416e+000 7.362372e+001
         vertex -7.112748e+001 1.035972e+001 8.562372e+001
         vertex -7.112748e+001 1.035972e+001 7.362372e+001
      endloop
   endfacet
   facet normal -8.022489e-001 5.969897e-001 -1.988375e-016
      outer loop
         vertex -7.112748e+001 1.035972e+001 7.362372e+001
         vertex -7.112748e+001 1.035972e+001 8.562372e+001
         vertex -6.997981e+001 1.203871e+001 8.562372e+001
      endloop
   endfacet
   facet normal -8.475446e-001 5.307241e-001 -1.767666e-016
      outer loop
         vertex -7.112748e+001 1.035972e+001 7.362372e+001
         vertex -6.997981e+001 1.203871e+001 8.562372e+001
         vertex -6.997981e+001 1.203871e+001 7.362372e+001
      endloop
   endfacet
   facet normal -9.210984e-001 3.893299e-001 -1.296729e-016
      outer loop
         vertex -6.997981e+001 1.203871e+001 7.362372e+001
         vertex -6.997981e+001 1.203871e+001 8.562372e+001
         vertex -6.926383e+001 1.394227e+001 8.562372e+001
      endloop
   endfacet
   facet normal -9.493564e-001 3.142011e-001 -1.046500e-016
      outer loop
         vertex -6.997981e+001 1.203871e+001 7.362372e+001
         vertex -6.926383e+001 1.394227e+001 8.562372e+001
         vertex -6.926383e+001 1.394227e+001 7.362372e+001
      endloop
   endfacet
   facet normal -9.872171e-001 1.593816e-001 -5.308475e-017
      outer loop
         vertex -6.926383e+001 1.394227e+001 7.362372e+001
         vertex -6.926383e+001 1.394227e+001 8.562372e+001
         vertex -6.902052e+001 1.596142e+001 8.562372e+001
      endloop
   endfacet
   facet normal -9.968196e-001 7.969082e-002 -2.654237e-017
      outer loop
         vertex -6.926383e+001 1.394227e+001 7.362372e+001
         vertex -6.902052e+001 1.596142e+001 8.562372e+001
         vertex -6.902052e+001 1.596142e+001 7.362372e+001
      endloop
   endfacet
   facet normal -9.968196e-001 -7.969082e-002 2.654237e-017
      outer loop
         vertex -6.902052e+001 1.596142e+001 7.362372e+001
         vertex -6.902052e+001 1.596142e+001 8.562372e+001
         vertex -6.926383e+001 1.798056e+001 8.562372e+001
      endloop
   endfacet
   facet normal -9.872171e-001 -1.593816e-001 5.308475e-017
      outer loop
         vertex -6.902052e+001 1.596142e+001 7.362372e+001
         vertex -6.926383e+001 1.798056e+001 8.562372e+001
         vertex -6.926383e+001 1.798056e+001 7.362372e+001
      endloop
   endfacet
   facet normal -9.493564e-001 -3.142011e-001 1.046500e-016
      outer loop
         vertex -6.926383e+001 1.798056e+001 7.362372e+001
         vertex -6.926383e+001 1.798056e+001 8.562372e+001
         vertex -6.997981e+001 1.988412e+001 8.562372e+001
      endloop
   endfacet
   facet normal -9.210984e-001 -3.893299e-001 1.296729e-016
      outer loop
         vertex -6.926383e+001 1.798056e+001 7.362372e+001
         vertex -6.997981e+001 1.988412e+001 8.562372e+001
         vertex -6.997981e+001 1.988412e+001 7.362372e+001
      endloop
   endfacet
   facet normal -8.475446e-001 -5.307241e-001 1.767666e-016
      outer loop
         vertex -6.997981e+001 1.988412e+001 7.362372e+001
         vertex -6.997981e+001 1.988412e+001 8.562372e+001
         vertex -7.112748e+001 2.156311e+001 8.562372e+001
      endloop
   endfacet
   facet normal -8.022489e-001 -5.969897e-001 1.988375e-016
      outer loop
         vertex -6.997981e+001 1.988412e+001 7.362372e+001
         vertex -7.112748e+001 2.156311e+001 8.562372e+001
         vertex -7.112748e+001 2.156311e+001 7.362372e+001
      endloop
   endfacet
   facet normal -6.972128e-001 -7.168643e-001 2.387638e-016
      outer loop
         vertex -7.112748e+001 2.156311e+001 7.362372e+001
         vertex -7.112748e+001 2.156311e+001 8.562372e+001
         vertex -7.264114e+001 2.292142e+001 8.562372e+001
      endloop
   endfacet
   facet normal -6.374724e-001 -7.704732e-001 2.566191e-016
      outer loop
         vertex -7.112748e+001 2.156311e+001 7.362372e+001
         vertex -7.264114e+001 2.292142e+001 8.562372e+001
         vertex -7.264114e+001 2.292142e+001 7.362372e+001
      endloop
   endfacet
   facet normal 0.000000e+000 -4.996004e-016 1.000000e+000
      outer loop
         vertex -7.272204e+001 9.001416e+000 7.362372e+001
         vertex -7.264114e+001 9.001416e+000 7.362372e+001
         vertex -7.272204e+001 2.292142e+001 7.362372e+001
      endloop
   endfacet
   facet normal 0.000000e+000 -4.996004e-016 1.000000e+000
      outer loop
         vertex -7.272204e+001 2.292142e+001 7.362372e+001
         vertex -7.264114e+001 9.001416e+000 7.362372e+001
         vertex -7.112748e+001 1.035972e+001 7.362372e+001
      endloop
   endfacet
   facet normal 0.000000e+000 -4.996004e-016 1.000000e+000
      outer loop
         vertex -6.926383e+001 1.798056e+001 7.362372e+001
         vertex -7.112748e+001 1.035972e+001 7.362372e+001
         vertex -6.902052e+001 1.596142e+001 7.362372e+001
      endloop
   endfacet
   facet normal 0.000000e+000 -4.996004e-016 1.000000e+000
      outer loop
         vertex -6.902052e+001 1.596142e+001 7.362372e+001
         vertex -7.112748e+001 1.035972e+001 7.362372e+001
         vertex -6.997981e+001 1.203871e+001 7.362372e+001
      endloop
   endfacet
   facet normal 0.000000e+000 -4.996004e-016 1.000000e+000
      outer loop
         vertex -6.902052e+001 1.596142e+001 7.362372e+001
         vertex -6.997981e+001 1.203871e+001 7.362372e+001
         vertex -6.926383e+001 1.394227e+001 7.362372e+001
      endloop
   endfacet
   facet normal 0.000000e+000 -4.996004e-016 1.000000e+000
      outer loop
         vertex -7.264114e+001 2.292142e+001 7.362372e+001
         vertex -7.272204e+001 2.292142e+001 7.362372e+001
         vertex -7.112748e+001 2.156311e+001 7.362372e+001
      endloop
   endfacet
   facet normal 0.000000e+000 -4.996004e-016 1.000000e+000
      outer loop
         vertex -7.112748e+001 2.156311e+001 7.362372e+001
         vertex -7.272204e+001 2.292142e+001 7.362372e+001
         vertex -7.112748e+001 1.035972e+001 7.362372e+001
      endloop
   endfacet
   facet normal 0.000000e+000 -4.996004e-016 1.000000e+000
      outer loop
         vertex -7.112748e+001 2.156311e+001 7.362372e+001
         vertex -7.112748e+001 1.035972e+001 7.362372e+001
         vertex -6.997981e+001 1.988412e+001 7.362372e+001
      endloop
   endfacet
   facet normal 0.000000e+000 -4.996004e-016 1.000000e+000
      outer loop
         vertex -6.997981e+001 1.988412e+001 7.362372e+001
         vertex -7.112748e+001 1.035972e+001 7.362372e+001
         vertex -6.926383e+001 1.798056e+001 7.362372e+001
      endloop
   endfacet
   facet normal -1.000000e+000 0.000000e+000 0.000000e+000
      outer loop
         vertex -7.264114e+001 2.292142e+001 8.562372e+001
         vertex -7.264114e+001 9.001416e+000 8.562372e+001
         vertex -7.264114e+001 2.292142e+001 8.662371e+001
      endloop
   endfacet
   facet normal -1.000000e+000 0.000000e+000 0.000000e+000
      outer loop
         vertex -7.264114e+001 2.292142e+001 8.662371e+001
         vertex -7.264114e+001 9.001416e+000 8.562372e+001
         vertex -7.264114e+001 9.001416e+000 8.662371e+001
      endloop
   endfacet
   facet normal 0.000000e+000 4.996004e-016 -1.000000e+000
      outer loop
         vertex -7.264114e+001 9.001416e+000 8.562372e+001
         vertex -7.264114e+001 2.292142e+001 8.562372e+001
         vertex -7.112748e+001 2.156311e+001 8.562372e+001
      endloop
   endfacet
   facet normal 0.000000e+000 4.996004e-016 -1.000000e+000
      outer loop
         vertex -6.926383e+001 1.394227e+001 8.562372e+001
         vertex -6.997981e+001 1.203871e+001 8.562372e+001
         vertex -7.112748e+001 1.035972e+001 8.562372e+001
      endloop
   endfacet
   facet normal 0.000000e+000 4.996004e-016 -1.000000e+000
      outer loop
         vertex -7.112748e+001 2.156311e+001 8.562372e+001
         vertex -6.997981e+001 1.988412e+001 8.562372e+001
         vertex -7.264114e+001 9.001416e+000 8.562372e+001
      endloop
   endfacet
   facet normal 0.000000e+000 4.996004e-016 -1.000000e+000
      outer loop
         vertex -7.264114e+001 9.001416e+000 8.562372e+001
         vertex -6.997981e+001 1.988412e+001 8.562372e+001
         vertex -6.926383e+001 1.798056e+001 8.562372e+001
      endloop
   endfacet
   facet normal 0.000000e+000 4.996004e-016 -1.000000e+000
      outer loop
         vertex -7.264114e+001 9.001416e+000 8.562372e+001
         vertex -6.926383e+001 1.798056e+001 8.562372e+001
         vertex -7.112748e+001 1.035972e+001 8.562372e+001
      endloop
   endfacet
   facet normal 0.000000e+000 4.996004e-016 -1.000000e+000
      outer loop
         vertex -7.112748e+001 1.035972e+001 8.562372e+001
         vertex -6.926383e+001 1.798056e+001 8.562372e+001
         vertex -6.902052e+001 1.596142e+001 8.562372e+001
      endloop
   endfacet
   facet normal 0.000000e+000 4.996004e-016 -1.000000e+000
      outer loop
         vertex -7.112748e+001 1.035972e+001 8.562372e+001
         vertex -6.902052e+001 1.596142e+001 8.562372e+001
         vertex -6.926383e+001 1.394227e+001 8.562372e+001
      endloop
   endfacet
endsolid